# xmcd
#
# Track frame offsets:
#	150
#	25232
#	54160
#	72855
#	92507
#	115542
#	132960
#	153295
#	167552
#	192657
#	214077
#	230700
#	250905
#	272432
#	288465
#	308310
#
# Disc length: 4440 seconds
#
# Revision: 4
# Processed by: cddbd v1.5.2PL0 Copyright (c) Steve Scherf et al.
# Submitted via: audiograbber 1.83.01
#
DISCID=d2115610
DTITLE=Silver Convention - get up and boogie - The Hits
DYEAR=1995
DGENRE=Disco
TTITLE0=Fly Robin Fly
TTITLE1=Get Up And Boogie
TTITLE2=No No Joe
TTITLE3=Tiger Baby
TTITLE4=Get It Up
TTITLE5=Breakfast In Bed
TTITLE6=Spend The Night With Me
TTITLE7=Thank You Mr. DJ
TTITLE8=Love In A Sleeper
TTITLE9=San Francisco Hustle
TTITLE10=Play Me Like A Yo Yo
TTITLE11=Save Me
TTITLE12=I Like It
TTITLE13=Everybody's Talking 'Bout Love
TTITLE14=Blame It On The Music
TTITLE15=Telegram
EXTD=
EXTT0=
EXTT1=
EXTT2=
EXTT3=
EXTT4=
EXTT5=
EXTT6=
EXTT7=
EXTT8=
EXTT9=
EXTT10=
EXTT11=
EXTT12=
EXTT13=
EXTT14=
EXTT15=
PLAYORDER=
